<svg id="Layer_1" data-name="Layer 1" xmlns="http://www.w3.org/2000/svg" viewBox="0 0 45.79 30"><defs><style>.cls-1{fill:#4173cd;}.cls-2{fill:#f5f5f5;}</style></defs><title>Scots</title><path class="cls-1" d="M42.36,30H3.43A3.44,3.44,0,0,1,0,26.57V3.43A3.44,3.44,0,0,1,3.43,0H42.36a3.44,3.44,0,0,1,3.43,3.43V26.57A3.44,3.44,0,0,1,42.36,30Z"/><path class="cls-2" d="M45.74,27.14,27.22,15,45.74,2.86A3.43,3.43,0,0,0,42.36,0h-.89L22.89,12.17,4.32,0H3.43A3.43,3.43,0,0,0,.05,2.86L18.57,15,.05,27.14A3.43,3.43,0,0,0,3.43,30h.89L22.89,17.83,41.47,30h.89A3.43,3.43,0,0,0,45.74,27.14Z"/></svg>